<?xml version="1.0" encoding="UTF-8" standalone="no"?>
<svg
   xmlns:dc="http://purl.org/dc/elements/1.1/"
   xmlns:cc="http://creativecommons.org/ns#"
   xmlns:rdf="http://www.w3.org/1999/02/22-rdf-syntax-ns#"
   xmlns:svg="http://www.w3.org/2000/svg"
   xmlns="http://www.w3.org/2000/svg"
   xmlns:sodipodi="http://sodipodi.sourceforge.net/DTD/sodipodi-0.dtd"
   xmlns:inkscape="http://www.inkscape.org/namespaces/inkscape"
   width="80"
   height="79.999992"
   viewBox="0 0 21.166666 21.166665"
   version="1.1"
   id="svg8"
   inkscape:version="1.0.1 (3bc2e813f5, 2020-09-07)"
   sodipodi:docname="logo.svg">
  <defs
     id="defs2">
    <clipPath
       clipPathUnits="userSpaceOnUse"
       id="clipPath913">
      <ellipse
         style="fill:none;fill-rule:evenodd;stroke:#000000;stroke-width:0.264583;stroke-miterlimit:4;stroke-dasharray:none;stroke-opacity:1"
         id="ellipse915"
         cx="13.229165"
         cy="13.229166"
         rx="13.096875"
         ry="13.096874" />
    </clipPath>
  </defs>
  <sodipodi:namedview
     id="base"
     pagecolor="#ffffff"
     bordercolor="#666666"
     borderopacity="1.0"
     inkscape:pageopacity="0.0"
     inkscape:pageshadow="2"
     inkscape:zoom="6.8"
     inkscape:cx="54.503405"
     inkscape:cy="50.000002"
     inkscape:document-units="mm"
     inkscape:current-layer="layer1"
     inkscape:document-rotation="0"
     showgrid="false"
     units="px"
     inkscape:window-width="1388"
     inkscape:window-height="864"
     inkscape:window-x="274"
     inkscape:window-y="107"
     inkscape:window-maximized="0"
     showguides="false"
     fit-margin-top="0"
     fit-margin-left="0"
     fit-margin-right="0"
     fit-margin-bottom="0" />
  <metadata
     id="metadata5">
    <rdf:RDF>
      <cc:Work
         rdf:about="">
        <dc:format>image/svg+xml</dc:format>
        <dc:type
           rdf:resource="http://purl.org/dc/dcmitype/StillImage" />
        <dc:title></dc:title>
      </cc:Work>
    </rdf:RDF>
  </metadata>
  <g
     inkscape:label="Layer 1"
     inkscape:groupmode="layer"
     id="layer1">
    <ellipse
       style="fill:none;fill-rule:evenodd;stroke:#000000;stroke-width:0.211667;stroke-miterlimit:4;stroke-dasharray:none;stroke-opacity:1"
       id="path10"
       cx="10.583331"
       cy="10.583332"
       rx="10.4775"
       ry="10.477499" />
    <g
       aria-label="LOGO"
       id="text837"
       style="font-style:normal;font-variant:normal;font-weight:normal;font-stretch:normal;font-size:6.35px;line-height:1.25;font-family:sans-serif;-inkscape-font-specification:'sans-serif, Normal';font-variant-ligatures:normal;font-variant-caps:normal;font-variant-numeric:normal;font-variant-east-asian:normal;letter-spacing:0px;word-spacing:0px;fill:#000000;fill-opacity:1;stroke:none;stroke-width:0.264583">
      <path
         d="M 5.9415,12.805832 H 3.3126 v -4.445 h 0.52705 v 3.9751 H 5.9415 Z"
         style="font-style:normal;font-variant:normal;font-weight:normal;font-stretch:normal;font-size:6.35px;font-family:sans-serif;-inkscape-font-specification:'sans-serif, Normal';font-variant-ligatures:normal;font-variant-caps:normal;font-variant-numeric:normal;font-variant-east-asian:normal;stroke-width:0.264583"
         id="path839" />
      <path
         d="m 5.992277,10.583332 q 0,-1.11125 0.4699,-1.7018 0.4699,-0.5969 1.33985,-0.5969 0.4699,0 0.8128,0.1651 0.3429,0.1651 0.56515,0.4699 0.2286,0.29845 0.33655,0.7239 0.10795,0.4191 0.10795,0.9398 0,1.11125 -0.47625,1.70815 -0.4699,0.59055 -1.3462,0.59055 -0.46355,0 -0.80645,-0.1651 -0.33655,-0.1651 -0.56515,-0.46355 -0.22225,-0.3048 -0.3302,-0.7239 -0.10795,-0.42545 -0.10795,-0.94615 z m 0.5588,0 q 0,0.3683 0.06985,0.6985 0.0762,0.3302 0.2286,0.5842 0.1524,0.24765 0.38735,0.40005 0.2413,0.14605 0.56515,0.14605 0.59055,0 0.9271,-0.4445 0.33655,-0.45085 0.33655,-1.3843 0,-0.36195 -0.0762,-0.69215 -0.06985,-0.33655 -0.2286,-0.5842 -0.1524,-0.254 -0.3937,-0.40005 -0.23495,-0.1524 -0.56515,-0.1524 -0.5842,0 -0.92075,0.45085 -0.3302,0.4445 -0.3302,1.37795 z"
         style="font-style:normal;font-variant:normal;font-weight:normal;font-stretch:normal;font-size:6.35px;font-family:sans-serif;-inkscape-font-specification:'sans-serif, Normal';font-variant-ligatures:normal;font-variant-caps:normal;font-variant-numeric:normal;font-variant-east-asian:normal;stroke-width:0.264583"
         id="path841" />
      <path
         d="m 12.018415,10.589682 h 1.49225 v 1.9558 q -0.1016,0.0762 -0.24765,0.1397 -0.1397,0.0635 -0.3048,0.10795 -0.15875,0.04445 -0.33655,0.0635 -0.17145,0.0254 -0.33655,0.0254 -0.42545,0 -0.78105,-0.13335 -0.3556,-0.1397 -0.61595,-0.4191 -0.26035,-0.28575 -0.4064,-0.71755 -0.14605,-0.43815 -0.14605,-1.0287 0,-0.61595 0.1778,-1.0541 0.1778,-0.43815 0.46355,-0.7112 0.28575,-0.2794 0.64135,-0.4064 0.3556,-0.127 0.7112,-0.127 0.381,0 0.62865,0.04445 0.24765,0.0381 0.4191,0.10795 l -0.13335,0.46355 q -0.3048,-0.14605 -0.86995,-0.14605 -0.2667,0 -0.5334,0.09525 -0.26035,0.0889 -0.4699,0.3048 -0.20955,0.2159 -0.3429,0.56515 -0.13335,0.34925 -0.13335,0.8636 0,0.4699 0.10795,0.8128 0.10795,0.3429 0.29845,0.5715 0.19685,0.22225 0.4699,0.33655 0.27305,0.10795 0.5969,0.10795 0.4064,0 0.69215,-0.15875 v -1.23825 l -1.0414,-0.127 z"
         style="font-style:normal;font-variant:normal;font-weight:normal;font-stretch:normal;font-size:6.35px;font-family:sans-serif;-inkscape-font-specification:'sans-serif, Normal';font-variant-ligatures:normal;font-variant-caps:normal;font-variant-numeric:normal;font-variant-east-asian:normal;stroke-width:0.264583"
         id="path843" />
      <path
         d="m 14.221862,10.583332 q 0,-1.11125 0.4699,-1.7018 0.4699,-0.5969 1.33985,-0.5969 0.4699,0 0.8128,0.1651 0.3429,0.1651 0.56515,0.4699 0.2286,0.29845 0.33655,0.7239 0.10795,0.4191 0.10795,0.9398 0,1.11125 -0.47625,1.70815 -0.4699,0.59055 -1.3462,0.59055 -0.46355,0 -0.80645,-0.1651 -0.33655,-0.1651 -0.56515,-0.46355 -0.22225,-0.3048 -0.3302,-0.7239 -0.10795,-0.42545 -0.10795,-0.94615 z m 0.5588,0 q 0,0.3683 0.06985,0.6985 0.0762,0.3302 0.2286,0.5842 0.1524,0.24765 0.38735,0.40005 0.2413,0.14605 0.56515,0.14605 0.59055,0 0.9271,-0.4445 0.33655,-0.45085 0.33655,-1.3843 0,-0.36195 -0.0762,-0.69215 -0.06985,-0.33655 -0.2286,-0.5842 -0.1524,-0.254 -0.3937,-0.40005 -0.23495,-0.1524 -0.56515,-0.1524 -0.5842,0 -0.92075,0.45085 -0.3302,0.4445 -0.3302,1.37795 z"
         style="font-style:normal;font-variant:normal;font-weight:normal;font-stretch:normal;font-size:6.35px;font-family:sans-serif;-inkscape-font-specification:'sans-serif, Normal';font-variant-ligatures:normal;font-variant-caps:normal;font-variant-numeric:normal;font-variant-east-asian:normal;stroke-width:0.264583"
         id="path845" />
    </g>
  </g>
</svg>
